<mxfile host="Electron" modified="2023-11-02T19:07:22.830Z" agent="Mozilla/5.0 (Windows NT 10.0; Win64; x64) AppleWebKit/537.36 (KHTML, like Gecko) draw.io/22.0.2 Chrome/114.0.5735.289 Electron/25.8.4 Safari/537.36" etag="3HOKVzXCJGsJlvMZMWbm" version="22.0.2" type="device">
  <diagram name="Page-1" id="F2f4-awnXObu3qVjfV9B">
    <mxGraphModel dx="1185" dy="683" grid="1" gridSize="10" guides="1" tooltips="1" connect="1" arrows="1" fold="1" page="1" pageScale="1" pageWidth="827" pageHeight="1169" math="0" shadow="0">
      <root>
        <mxCell id="0" />
        <mxCell id="1" parent="0" />
        <mxCell id="83mi43zX5fv6VoXPIgYI-1" value="&lt;font style=&quot;font-size: 17px;&quot;&gt;&lt;b&gt;Local DNS Server&lt;br&gt;&lt;/b&gt;&lt;/font&gt;&lt;font face=&quot;Lucida Console&quot; style=&quot;font-size: 15px;&quot;&gt;dns.nyu.edu&lt;/font&gt;" style="verticalAlign=top;verticalLabelPosition=bottom;labelPosition=center;align=center;html=1;outlineConnect=0;fillColor=#dae8fc;strokeColor=#6c8ebf;gradientDirection=north;strokeWidth=2;shape=mxgraph.networks.server;" vertex="1" parent="1">
          <mxGeometry x="105" y="250" width="90" height="100" as="geometry" />
        </mxCell>
        <mxCell id="83mi43zX5fv6VoXPIgYI-2" value="Requesting Host&lt;br&gt;cse.nyu.edu" style="verticalAlign=top;verticalLabelPosition=bottom;labelPosition=center;align=center;html=1;outlineConnect=0;fillColor=#dae8fc;strokeColor=#6c8ebf;gradientDirection=north;strokeWidth=2;shape=mxgraph.networks.pc;" vertex="1" parent="1">
          <mxGeometry x="100" y="515" width="100" height="70" as="geometry" />
        </mxCell>
        <mxCell id="83mi43zX5fv6VoXPIgYI-3" value="&lt;font style=&quot;font-size: 17px;&quot;&gt;&lt;b&gt;Root DNS Server&lt;/b&gt;&lt;/font&gt;" style="verticalAlign=top;verticalLabelPosition=bottom;labelPosition=center;align=center;html=1;outlineConnect=0;fillColor=#dae8fc;strokeColor=#6c8ebf;gradientDirection=north;strokeWidth=2;shape=mxgraph.networks.server;" vertex="1" parent="1">
          <mxGeometry x="310" y="10" width="90" height="100" as="geometry" />
        </mxCell>
        <mxCell id="83mi43zX5fv6VoXPIgYI-4" value="&lt;font style=&quot;font-size: 17px;&quot;&gt;&lt;b&gt;TLD DNS Server&lt;/b&gt;&lt;/font&gt;" style="verticalAlign=top;verticalLabelPosition=bottom;labelPosition=center;align=center;html=1;outlineConnect=0;fillColor=#dae8fc;strokeColor=#6c8ebf;gradientDirection=north;strokeWidth=2;shape=mxgraph.networks.server;" vertex="1" parent="1">
          <mxGeometry x="520" y="250" width="90" height="100" as="geometry" />
        </mxCell>
        <mxCell id="83mi43zX5fv6VoXPIgYI-5" value="&lt;font style=&quot;font-size: 14px;&quot;&gt;&lt;b&gt;Authoritative DNS Server&lt;/b&gt;&lt;br&gt;.cs.umass.edu&lt;br&gt;&lt;/font&gt;" style="verticalAlign=top;verticalLabelPosition=bottom;labelPosition=center;align=center;html=1;outlineConnect=0;fillColor=#dae8fc;strokeColor=#6c8ebf;gradientDirection=north;strokeWidth=2;shape=mxgraph.networks.server;" vertex="1" parent="1">
          <mxGeometry x="520" y="515" width="90" height="100" as="geometry" />
        </mxCell>
        <mxCell id="83mi43zX5fv6VoXPIgYI-6" value="&lt;font style=&quot;font-size: 17px;&quot;&gt;&lt;b&gt;Root DNS Server&lt;/b&gt;&lt;/font&gt;" style="verticalAlign=top;verticalLabelPosition=bottom;labelPosition=center;align=center;html=1;outlineConnect=0;fillColor=#dae8fc;strokeColor=#6c8ebf;gradientDirection=north;strokeWidth=2;shape=mxgraph.networks.server;" vertex="1" parent="1">
          <mxGeometry x="660" y="1310" width="90" height="100" as="geometry" />
        </mxCell>
        <mxCell id="83mi43zX5fv6VoXPIgYI-7" value="&lt;font style=&quot;font-size: 17px;&quot;&gt;&lt;b&gt;Requesting Host&lt;/b&gt;&lt;/font&gt;" style="verticalAlign=top;verticalLabelPosition=bottom;labelPosition=center;align=center;html=1;outlineConnect=0;fillColor=#dae8fc;strokeColor=#6c8ebf;gradientDirection=north;strokeWidth=2;shape=mxgraph.networks.pc;" vertex="1" parent="1">
          <mxGeometry x="60" y="1555" width="100" height="70" as="geometry" />
        </mxCell>
        <mxCell id="83mi43zX5fv6VoXPIgYI-8" value="&lt;span style=&quot;font-size: 17px;&quot;&gt;&lt;b&gt;Recursive resolver&lt;/b&gt;&lt;/span&gt;" style="verticalAlign=top;verticalLabelPosition=bottom;labelPosition=center;align=center;html=1;outlineConnect=0;fillColor=#dae8fc;strokeColor=#6c8ebf;gradientDirection=north;strokeWidth=2;shape=mxgraph.networks.server;" vertex="1" parent="1">
          <mxGeometry x="360" y="1540" width="90" height="100" as="geometry" />
        </mxCell>
        <mxCell id="83mi43zX5fv6VoXPIgYI-9" value="&lt;b style=&quot;border-color: var(--border-color); font-size: 17px;&quot;&gt;TLD DNS Server&lt;/b&gt;" style="verticalAlign=top;verticalLabelPosition=bottom;labelPosition=center;align=center;html=1;outlineConnect=0;fillColor=#dae8fc;strokeColor=#6c8ebf;gradientDirection=north;strokeWidth=2;shape=mxgraph.networks.server;" vertex="1" parent="1">
          <mxGeometry x="660" y="1540" width="90" height="100" as="geometry" />
        </mxCell>
        <mxCell id="83mi43zX5fv6VoXPIgYI-10" value="&lt;font style=&quot;font-size: 14px;&quot;&gt;&lt;b&gt;Authoritative DNS Server&lt;/b&gt;&lt;br&gt;&lt;/font&gt;" style="verticalAlign=top;verticalLabelPosition=bottom;labelPosition=center;align=center;html=1;outlineConnect=0;fillColor=#dae8fc;strokeColor=#6c8ebf;gradientDirection=north;strokeWidth=2;shape=mxgraph.networks.server;" vertex="1" parent="1">
          <mxGeometry x="340" y="1169" width="90" height="100" as="geometry" />
        </mxCell>
        <mxCell id="83mi43zX5fv6VoXPIgYI-11" value="&lt;b style=&quot;border-color: var(--border-color); font-size: 17px;&quot;&gt;SLD DNS Server&lt;/b&gt;" style="verticalAlign=top;verticalLabelPosition=bottom;labelPosition=center;align=center;html=1;outlineConnect=0;fillColor=#dae8fc;strokeColor=#6c8ebf;gradientDirection=north;strokeWidth=2;shape=mxgraph.networks.server;" vertex="1" parent="1">
          <mxGeometry x="660" y="1770" width="90" height="100" as="geometry" />
        </mxCell>
        <mxCell id="83mi43zX5fv6VoXPIgYI-12" value="" style="endArrow=classic;html=1;rounded=0;strokeWidth=3;fillColor=#dae8fc;strokeColor=#6c8ebf;" edge="1" parent="1">
          <mxGeometry width="50" height="50" relative="1" as="geometry">
            <mxPoint x="180" y="1580" as="sourcePoint" />
            <mxPoint x="340" y="1580" as="targetPoint" />
          </mxGeometry>
        </mxCell>
        <mxCell id="83mi43zX5fv6VoXPIgYI-14" value="&lt;font color=&quot;#3c70b9&quot; style=&quot;&quot;&gt;&lt;b style=&quot;&quot;&gt;&lt;font style=&quot;font-size: 16px;&quot;&gt;1.&lt;/font&gt;&lt;/b&gt; example.com&lt;/font&gt;" style="edgeLabel;html=1;align=center;verticalAlign=middle;resizable=0;points=[];fontSize=14;fontStyle=0" vertex="1" connectable="0" parent="83mi43zX5fv6VoXPIgYI-12">
          <mxGeometry x="0.2" y="2" relative="1" as="geometry">
            <mxPoint x="-26" y="-11" as="offset" />
          </mxGeometry>
        </mxCell>
        <mxCell id="83mi43zX5fv6VoXPIgYI-15" value="" style="endArrow=classic;html=1;rounded=0;strokeWidth=3;fillColor=#dae8fc;strokeColor=#6c8ebf;" edge="1" parent="1">
          <mxGeometry width="50" height="50" relative="1" as="geometry">
            <mxPoint x="430" y="1520" as="sourcePoint" />
            <mxPoint x="650" y="1360" as="targetPoint" />
          </mxGeometry>
        </mxCell>
        <mxCell id="83mi43zX5fv6VoXPIgYI-18" value="&lt;span style=&quot;font-size: 24px;&quot;&gt;&lt;b style=&quot;font-size: 24px;&quot;&gt;&lt;font color=&quot;#3c74be&quot; style=&quot;font-size: 24px;&quot;&gt;2&lt;/font&gt;&lt;/b&gt;&lt;/span&gt;" style="edgeLabel;html=1;align=center;verticalAlign=middle;resizable=0;points=[];labelBackgroundColor=default;fontSize=24;" vertex="1" connectable="0" parent="83mi43zX5fv6VoXPIgYI-15">
          <mxGeometry x="0.0265" relative="1" as="geometry">
            <mxPoint as="offset" />
          </mxGeometry>
        </mxCell>
        <mxCell id="83mi43zX5fv6VoXPIgYI-19" value="" style="endArrow=classic;html=1;rounded=0;strokeWidth=3;fillColor=#dae8fc;strokeColor=#6c8ebf;" edge="1" parent="1">
          <mxGeometry width="50" height="50" relative="1" as="geometry">
            <mxPoint x="460" y="1580" as="sourcePoint" />
            <mxPoint x="650" y="1580" as="targetPoint" />
          </mxGeometry>
        </mxCell>
        <mxCell id="83mi43zX5fv6VoXPIgYI-20" value="&lt;font color=&quot;#3c74be&quot;&gt;&lt;b&gt;4&lt;/b&gt;&lt;/font&gt;" style="edgeLabel;html=1;align=center;verticalAlign=middle;resizable=0;points=[];labelBackgroundColor=default;fontSize=24;" vertex="1" connectable="0" parent="83mi43zX5fv6VoXPIgYI-19">
          <mxGeometry x="0.0265" relative="1" as="geometry">
            <mxPoint x="-2" as="offset" />
          </mxGeometry>
        </mxCell>
        <mxCell id="83mi43zX5fv6VoXPIgYI-23" value="" style="endArrow=classic;html=1;rounded=0;strokeWidth=3;fillColor=#dae8fc;strokeColor=#6c8ebf;" edge="1" parent="1">
          <mxGeometry width="50" height="50" relative="1" as="geometry">
            <mxPoint x="460" y="1670" as="sourcePoint" />
            <mxPoint x="650" y="1790" as="targetPoint" />
          </mxGeometry>
        </mxCell>
        <mxCell id="83mi43zX5fv6VoXPIgYI-24" value="&lt;font color=&quot;#3c74be&quot;&gt;&lt;b&gt;6&lt;/b&gt;&lt;/font&gt;" style="edgeLabel;html=1;align=center;verticalAlign=middle;resizable=0;points=[];labelBackgroundColor=default;fontSize=24;" vertex="1" connectable="0" parent="83mi43zX5fv6VoXPIgYI-23">
          <mxGeometry x="0.0265" relative="1" as="geometry">
            <mxPoint x="-2" as="offset" />
          </mxGeometry>
        </mxCell>
        <mxCell id="83mi43zX5fv6VoXPIgYI-27" value="" style="endArrow=classic;html=1;rounded=0;strokeWidth=3;fillColor=#dae8fc;strokeColor=#6c8ebf;" edge="1" parent="1">
          <mxGeometry width="50" height="50" relative="1" as="geometry">
            <mxPoint x="640" y="1390" as="sourcePoint" />
            <mxPoint x="450" y="1530" as="targetPoint" />
          </mxGeometry>
        </mxCell>
        <mxCell id="83mi43zX5fv6VoXPIgYI-28" value="&lt;font color=&quot;#3c74be&quot;&gt;&lt;b&gt;6&lt;/b&gt;&lt;/font&gt;" style="edgeLabel;html=1;align=center;verticalAlign=middle;resizable=0;points=[];labelBackgroundColor=default;fontSize=24;" vertex="1" connectable="0" parent="83mi43zX5fv6VoXPIgYI-27">
          <mxGeometry x="0.0265" relative="1" as="geometry">
            <mxPoint x="-2" as="offset" />
          </mxGeometry>
        </mxCell>
      </root>
    </mxGraphModel>
  </diagram>
</mxfile>
